<svg xmlns="http://www.w3.org/2000/svg" viewBox="0 0 24 24"><g fill="rgb(29, 155, 240)"><path d="M 8 9.5 C 8 8.119 8.672 7 9.5 7 S 11 8.119 11 9.5 S 10.328 12 9.5 12 S 8 10.881 8 9.5 Z m 6.5 2.5 c 0.828 0 1.5 -1.119 1.5 -2.5 S 15.328 7 14.5 7 S 13 8.119 13 9.5 s 0.672 2.5 1.5 2.5 Z M 12 16 c -2.224 0 -3.021 -2.227 -3.051 -2.316 l -1.897 0.633 c 0.05 0.15 1.271 3.684 4.949 3.684 s 4.898 -3.533 4.949 -3.684 l -1.896 -0.638 c -0.033 0.095 -0.83 2.322 -3.053 2.322 Z m 10.25 -4.001 c 0 5.652 -4.598 10.25 -10.25 10.25 S 1.75 17.652 1.75 12 S 6.348 1.75 12 1.75 S 22.25 6.348 22.25 12 Z m -2 0 c 0 -4.549 -3.701 -8.25 -8.25 -8.25 S 3.75 7.451 3.75 12 s 3.701 8.25 8.25 8.25 s 8.25 -3.701 8.25 -8.25 Z"/></g></svg>