<svg xmlns="http://www.w3.org/2000/svg" viewBox="0 0 24 24"><g fill="rgb(29, 155, 240)"><path d="M 12 7 c -1.93 0 -3.5 1.57 -3.5 3.5 S 10.07 14 12 14 s 3.5 -1.57 3.5 -3.5 S 13.93 7 12 7 Z m 0 5 c -0.827 0 -1.5 -0.673 -1.5 -1.5 S 11.173 9 12 9 s 1.5 0.673 1.5 1.5 S 12.827 12 12 12 Z m 0 -10 c -4.687 0 -8.5 3.813 -8.5 8.5 c 0 5.967 7.621 11.116 7.945 11.332 l 0.555 0.37 l 0.555 -0.37 c 0.324 -0.216 7.945 -5.365 7.945 -11.332 C 20.5 5.813 16.687 2 12 2 Z m 0 17.77 c -1.665 -1.241 -6.5 -5.196 -6.5 -9.27 C 5.5 6.916 8.416 4 12 4 s 6.5 2.916 6.5 6.5 c 0 4.073 -4.835 8.028 -6.5 9.27 Z"/></g></svg>