<svg xmlns="http://www.w3.org/2000/svg" viewBox="0 0 24 24"><g fill="rgb(29, 155, 240)"><path d="M 3 5.5 C 3 4.119 4.12 3 5.5 3 h 13 C 19.88 3 21 4.119 21 5.5 v 13 c 0 1.381 -1.12 2.5 -2.5 2.5 h -13 C 4.12 21 3 19.881 3 18.5 v -13 Z M 5.5 5 c -0.28 0 -0.5 0.224 -0.5 0.5 v 13 c 0 0.276 0.22 0.5 0.5 0.5 h 13 c 0.28 0 0.5 -0.224 0.5 -0.5 v -13 c 0 -0.276 -0.22 -0.5 -0.5 -0.5 h -13 Z M 18 10.711 V 9.25 h -3.74 v 5.5 h 1.44 v -1.719 h 1.7 V 11.57 h -1.7 v -0.859 H 18 Z M 11.79 9.25 h 1.44 v 5.5 h -1.44 v -5.5 Z m -3.07 1.375 c 0.34 0 0.77 0.172 1.02 0.43 l 1.03 -0.86 c -0.51 -0.601 -1.28 -0.945 -2.05 -0.945 C 7.19 9.25 6 10.453 6 12 s 1.19 2.75 2.72 2.75 c 0.85 0 1.54 -0.344 2.05 -0.945 v -2.149 H 8.38 v 1.032 H 9.4 v 0.515 c -0.17 0.086 -0.42 0.172 -0.68 0.172 c -0.76 0 -1.36 -0.602 -1.36 -1.375 c 0 -0.688 0.6 -1.375 1.36 -1.375 Z"/></g></svg>