<svg xmlns="http://www.w3.org/2000/svg" viewBox="0 0 24 24"><g fill="rgb(29, 155, 240)"><path d="M 6 5 c -1.1 0 -2 0.895 -2 2 s 0.9 2 2 2 s 2 -0.895 2 -2 s -0.9 -2 -2 -2 Z M 2 7 c 0 -2.209 1.79 -4 4 -4 s 4 1.791 4 4 s -1.79 4 -4 4 s -4 -1.791 -4 -4 Z m 20 1 H 12 V 6 h 10 v 2 Z M 6 15 c -1.1 0 -2 0.895 -2 2 s 0.9 2 2 2 s 2 -0.895 2 -2 s -0.9 -2 -2 -2 Z m -4 2 c 0 -2.209 1.79 -4 4 -4 s 4 1.791 4 4 s -1.79 4 -4 4 s -4 -1.791 -4 -4 Z m 20 1 H 12 v -2 h 10 v 2 Z M 7 7 c 0 0.552 -0.45 1 -1 1 s -1 -0.448 -1 -1 s 0.45 -1 1 -1 s 1 0.448 1 1 Z"/></g></svg>