<svg xmlns="http://www.w3.org/2000/svg" viewBox="0 0 24 24"><g fill="rgb(29, 155, 240)"><path d="M 6 3 V 2 h 2 v 1 h 6 V 2 h 2 v 1 h 1.5 C 18.88 3 20 4.119 20 5.5 v 2 h -2 v -2 c 0 -0.276 -0.22 -0.5 -0.5 -0.5 H 16 v 1 h -2 V 5 H 8 v 1 H 6 V 5 H 4.5 c -0.28 0 -0.5 0.224 -0.5 0.5 v 12 c 0 0.276 0.22 0.5 0.5 0.5 h 3 v 2 h -3 C 3.12 20 2 18.881 2 17.5 v -12 C 2 4.119 3.12 3 4.5 3 H 6 Z m 9.5 8 c -2.49 0 -4.5 2.015 -4.5 4.5 s 2.01 4.5 4.5 4.5 s 4.5 -2.015 4.5 -4.5 s -2.01 -4.5 -4.5 -4.5 Z M 9 15.5 C 9 11.91 11.91 9 15.5 9 s 6.5 2.91 6.5 6.5 s -2.91 6.5 -6.5 6.5 S 9 19.09 9 15.5 Z m 5.5 -2.5 h 2 v 2.086 l 1.71 1.707 l -1.42 1.414 l -2.29 -2.293 V 13 Z"/></g></svg>